<?xml version="1.0" encoding="UTF-8"?>
<!DOCTYPE svg PUBLIC "-//W3C//DTD SVG 1.1//EN" "http://www.w3.org/Graphics/SVG/1.1/DTD/svg11.dtd">
<!-- Creator: CorelDRAW X7 -->
<svg xmlns="http://www.w3.org/2000/svg" xml:space="preserve" width="400px" height="400px" version="1.1" style="shape-rendering:geometricPrecision; text-rendering:geometricPrecision; image-rendering:optimizeQuality; fill-rule:evenodd; clip-rule:evenodd"
viewBox="0 0 400 400"
 xmlns:xlink="http://www.w3.org/1999/xlink">
 <defs>
  <style type="text/css">
   <![CDATA[
    .fil0 {fill:white}
   ]]>
  </style>
 </defs>
 <g id="Camada_x0020_1">
  <metadata id="CorelCorpID_0Corel-Layer"/>
  <g id="_2195215873104">
   <path class="fil0" d="M227 358l0 0zm0 0c3,-6 17,-27 22,-35l18 -28c9,-14 18,-29 27,-43 2,-1 4,-6 5,-6 0,3 1,6 1,10 0,3 0,8 0,11 0,12 -5,31 -11,42 -5,7 -6,10 -12,17l-18 17c-6,4 -25,15 -32,15zm-127 -92l0 -8c0,-5 1,-8 1,-12 2,1 38,59 45,69l18 28c2,3 8,13 9,15 -13,-3 -25,-10 -34,-17l-6 -5c-2,-2 -3,-3 -5,-5 -5,-5 -12,-14 -15,-20l-4 -8c-5,-11 -9,-23 -9,-37zm100 80c-2,-2 -6,-9 -8,-12 -2,-4 -4,-8 -7,-12l-23 -35c-2,-4 -5,-8 -7,-12 -2,-3 -15,-22 -15,-24l26 13c4,-16 10,-37 13,-52l22 -89c0,4 10,46 12,53 1,6 3,12 4,17l17 71 27 -13 -19 29c-2,3 -2,4 -4,6 -1,2 -2,4 -4,6 -1,2 -2,4 -4,6 -1,2 -28,46 -30,48zm-44 -166c0,-2 -4,-6 -6,-8l-32 -40c-2,-3 -4,-5 -6,-8 -2,-2 -5,-6 -7,-8 0,2 1,5 1,7 2,8 13,45 13,50 -2,1 -4,3 -6,5 -4,6 -10,11 -14,18 3,4 8,7 12,9 0,1 1,2 2,2 2,2 0,1 2,1 1,-2 8,-11 10,-13l5 18c1,5 4,13 4,18l-51 -23c-2,-1 -6,-3 -8,-3l7 11c5,6 5,4 2,12 -8,25 -6,58 6,82 3,6 6,12 10,18 4,6 7,11 12,16 13,13 25,21 42,29 9,4 23,8 34,8 1,2 2,4 3,5 2,3 8,11 8,14l2 0c1,-5 9,-14 11,-19 19,0 45,-12 61,-23 6,-5 10,-9 15,-14 7,-7 12,-16 17,-24 1,-2 2,-3 3,-5 24,-49 5,-91 6,-93 0,0 3,-5 3,-6 3,-4 6,-7 8,-11 -4,0 -39,17 -44,19 -5,3 -10,5 -15,7 1,-6 7,-28 9,-36 2,2 9,11 10,13 2,0 3,-1 4,-2 3,-3 10,-7 12,-10 -3,-5 -8,-11 -12,-15 -3,-3 -4,-6 -8,-8 0,-5 11,-42 13,-50 0,-2 1,-5 1,-7 -1,1 -2,2 -3,4l-35 44c-2,2 -13,14 -13,16 -2,-1 -2,-2 -2,-5l-26 -107c-3,-16 -9,-40 -13,-56 0,-2 -1,-4 -1,-6 -1,-2 -1,-4 -1,-6l-2 0c0,4 -11,50 -13,56 -9,38 -17,76 -26,113l-2 9c-1,2 0,1 -2,2z"/>
   <path class="fil0" d="M199 306l2 0c0,-2 14,-41 14,-42 0,-1 -3,-9 -3,-11 -1,-2 -2,-3 -2,-5l-8 -21c0,-2 -1,-4 -1,-6l-2 0c0,2 -7,23 -9,27 0,1 -1,3 -2,5 -4,14 -4,7 0,21l11 32z"/>
  </g>
 </g>
</svg>
