<?xml version="1.0" standalone="no"?>
<!DOCTYPE svg PUBLIC "-//W3C//DTD SVG 20010904//EN"
 "http://www.w3.org/TR/2001/REC-SVG-20010904/DTD/svg10.dtd">
<svg version="1.0" xmlns="http://www.w3.org/2000/svg"
 width="300.000000pt" height="46.000000pt" viewBox="0 0 300.000000 46.000000"
 preserveAspectRatio="xMidYMid meet">

<g transform="translate(0.000000,46.000000) scale(0.100000,-0.100000)"
fill="#000000" stroke="none">
<path d="M209 440 c-158 -27 -237 -135 -199 -272 31 -109 138 -158 345 -158
206 0 314 51 339 163 l6 27 -106 0 c-95 0 -108 -2 -122 -21 -38 -46 -194 -48
-239 -3 -28 28 -30 73 -5 103 37 46 207 47 243 2 16 -19 27 -21 123 -21 l106
0 -6 28 c-18 77 -89 131 -198 151 -67 12 -217 13 -287 1z"/>
<path d="M730 230 l0 -220 283 0 c255 0 286 2 324 19 48 22 73 62 73 117 0 29
-8 44 -38 74 -38 38 -38 39 -20 62 42 54 10 138 -60 158 -21 5 -150 10 -299
10 l-263 0 0 -220z m425 106 c16 -12 17 -16 6 -30 -11 -13 -34 -16 -122 -16
l-109 0 0 30 0 30 103 0 c72 0 109 -4 122 -14z m46 -172 c11 -14 10 -18 -6
-30 -14 -10 -53 -14 -142 -14 l-123 0 0 30 0 30 129 0 c106 0 131 -3 142 -16z"/>
<path d="M1440 230 l0 -220 282 0 c163 0 278 4 273 9 -6 5 -49 36 -97 70 l-87
61 -80 0 -81 0 0 150 0 150 -105 0 -105 0 0 -220z"/>
<path d="M1907 440 c-73 -13 -153 -56 -176 -94 -12 -18 -21 -38 -21 -43 0 -5
27 -28 60 -51 46 -33 68 -42 100 -42 37 0 40 2 40 28 0 53 29 67 140 67 82 0
101 -3 119 -19 34 -31 25 -103 -16 -122 -10 -4 -67 -10 -128 -13 l-109 -6 92
-69 93 -69 62 8 c120 13 203 70 226 152 32 114 -17 212 -127 254 -45 17 -83
22 -182 25 -69 1 -147 -1 -173 -6z"/>
<path d="M2430 230 l0 -220 282 0 282 0 -100 70 -99 70 -82 0 -83 0 0 150 0
150 -100 0 -100 0 0 -220z"/>
</g>
</svg>
